<?xml version="1.0" standalone="no"?>
<!DOCTYPE svg PUBLIC "-//W3C//DTD SVG 20010904//EN"
 "http://www.w3.org/TR/2001/REC-SVG-20010904/DTD/svg10.dtd">
<svg version="1.0" xmlns="http://www.w3.org/2000/svg"
 width="24.000000pt" height="24.000000pt" viewBox="0 0 24.000000 24.000000"
 preserveAspectRatio="xMidYMid meet">

<g transform="translate(0.000000,24.000000) scale(0.100000,-0.100000)"
fill="#ED009C" stroke="#ED009C">
<path d="M171 203 c-8 -14 -12 -16 -22 -5 -21 20 -39 14 -87 -25 -25 -21 -50
-41 -55 -44 -5 -4 -6 -12 -2 -18 4 -8 25 4 61 34 l54 47 54 -47 c35 -29 57
-42 61 -35 4 6 0 17 -8 23 -9 7 -17 27 -19 46 -3 39 -21 51 -37 24z"/>
<path d="M78 143 c-46 -38 -49 -43 -46 -83 3 -32 6 -35 36 -38 30 -3 32 -1 32
27 0 24 4 31 20 31 16 0 20 -7 20 -31 0 -28 2 -30 33 -27 29 3 32 6 35 38 1
19 -1 40 -5 45 -13 17 -74 65 -83 65 -5 0 -23 -12 -42 -27z"/>
</g>
</svg>
