<svg xmlns="http://www.w3.org/2000/svg" xmlns:xlink="http://www.w3.org/1999/xlink" version="1.1" width="1000" height="1000" viewBox="0 0 1000 1000" xml:space="preserve">
<desc>Created with Fabric.js 3.5.0</desc>
<defs>
</defs>
<g transform="matrix(1.8005 0 0 1.8005 497.8248 490.2955)" id="558015">
<g style="" vector-effect="non-scaling-stroke">
		<g transform="matrix(0.1797 0 0 -0.1797 -178.3837 -110.6019)">
<path style="stroke:#ED009C; stroke-width: 1; stroke-dasharray: none; stroke-linecap: butt; stroke-dashoffset: 0; stroke-linejoin: miter; stroke-miterlimit: 4; is-custom-font: none; font-file-url: none; fill: #ED009C; fill-rule: nonzero; opacity: 1;" transform=" translate(-1504.7817, -3117.3955)" d="M 1700 3992 c -82 -53 -519 -335 -538 -347 c -178 -111 -214 -138 -209 -158 c 5 -19 23 -148 58 -415 l 11 -82 l 137 -127 c 560 -520 716 -661 725 -652 c 4 4 38 118 136 454 l 37 130 l -19 30 c -33 52 -161 262 -215 353 c -29 48 -52 93 -53 101 c 0 12 54 131 210 456 c 49 102 69 154 63 164 c -8 12 -226 112 -272 125 c -9 2 -41 -12 -71 -32 z" stroke-linecap="round"/>
</g>
		<g transform="matrix(0.1797 0 0 -0.1797 178.5545 -109.3488)">
<path style="stroke: #ED009C; stroke-width: 1; stroke-dasharray: none; stroke-linecap: butt; stroke-dashoffset: 0; stroke-linejoin: miter; stroke-miterlimit: 4; is-custom-font: none; font-file-url: none; fill: #ED009C; fill-rule: nonzero; opacity: 1;" transform=" translate(-3491.5, -3110.4212)" d="M 3090 3964 c -69 -30 -130 -57 -137 -60 c -13 -6 -7 -22 87 -219 c 104 -219 190 -403 190 -409 c 0 -3 -20 -40 -45 -82 c -25 -41 -45 -77 -45 -80 c 0 -2 -45 -75 -100 -163 l -100 -159 l 46 -158 c 100 -348 124 -427 127 -430 c 6 -6 157 130 587 527 c 140 130 260 242 266 250 c 10 12 34 180 71 481 l 6 46 l -89 58 c -49 31 -107 69 -129 84 c -156 105 -574 364 -590 367 c -11 1 -76 -22 -145 -53 z" stroke-linecap="round"/>
</g>
		<g transform="matrix(0.1797 0 0 -0.1797 -0.6525 11.9298)">
<path style="stroke: #ED009C; stroke-width: 1; stroke-dasharray: none; stroke-linecap: butt; stroke-dashoffset: 0; stroke-linejoin: miter; stroke-miterlimit: 4; is-custom-font: none; font-file-url: none; fill: #ED009C; fill-rule: nonzero; opacity: 1;" transform=" translate(-2494.008, -2435.5)" d="M 1967 3591 l -147 -300 l 81 -133 c 44 -73 84 -140 89 -148 c 5 -8 55 -91 110 -185 c 56 -93 107 -175 113 -180 c 7 -6 13 -17 15 -25 c 2 -8 9 -21 15 -29 c 7 -8 13 -24 13 -35 c 1 -20 15 -124 49 -376 c 18 -131 51 -384 66 -510 c 8 -64 19 -100 44 -145 c 88 -161 150 -277 226 -420 l 37 -70 l 126 -28 l 126 -28 l 80 66 c 44 37 80 73 80 80 c 0 14 -45 104 -58 117 c -5 5 -41 -16 -82 -46 c -41 -30 -78 -51 -81 -48 c -3 4 -47 129 -97 277 c -80 239 -90 276 -86 325 c 2 30 11 156 19 280 c 8 124 23 295 31 380 l 17 155 l 102 180 c 57 99 151 263 209 364 c 59 102 105 188 104 192 c -2 3 -66 135 -143 293 l -140 286 l -350 0 c -192 0 -366 3 -385 6 l -36 6 l -147 -301 z" stroke-linecap="round"/>
</g>
		<g transform="matrix(0.1797 0 0 -0.1797 -76.4916 64.6774)">
<path style="stroke: #ED009C; stroke-width: 1; stroke-dasharray: none; stroke-linecap: butt; stroke-dashoffset: 0; stroke-linejoin: miter; stroke-miterlimit: 4; is-custom-font: none; font-file-url: none; fill: #ED009C; fill-rule: nonzero; opacity: 1;" transform=" translate(-2072, -2141.717)" d="M 2093 2668 c -6 -18 -45 -131 -86 -250 l -75 -217 l 13 -53 c 7 -29 22 -98 33 -153 c 78 -371 71 -347 110 -383 c 44 -40 51 -28 29 49 c -14 45 -14 72 0 237 c 8 104 32 290 55 419 l 40 232 l -47 68 c -27 37 -51 71 -55 76 c -3 4 -11 -7 -17 -25 z" stroke-linecap="round"/>
</g>
		<g transform="matrix(0.1797 0 0 -0.1797 75.696 70.1236)">
<path style="stroke: #ED009C; stroke-width: 1; stroke-dasharray: none; stroke-linecap: butt; stroke-dashoffset: 0; stroke-linejoin: miter; stroke-miterlimit: 4; is-custom-font: none; font-file-url: none; fill: #ED009C; fill-rule: nonzero; opacity: 1;" transform=" translate(-2919.078, -2111.4047)" d="M 2836 2613 c -29 -42 -41 -70 -44 -104 c -4 -48 -2 -66 41 -324 c 14 -82 31 -231 37 -330 c 10 -158 10 -187 -4 -239 c -9 -33 -14 -61 -13 -63 c 2 -2 21 12 41 30 c 34 29 40 41 56 117 c 85 397 101 477 97 495 c -3 11 -28 86 -56 166 c -28 81 -51 159 -51 173 c 0 14 -4 26 -9 26 c -6 0 -18 25 -27 55 c -10 30 -20 55 -23 55 c -3 -1 -24 -26 -45 -57 z" stroke-linecap="round"/>
</g>
</g>
</g>
</svg>