<?xml version="1.0" standalone="no"?>
<!DOCTYPE svg PUBLIC "-//W3C//DTD SVG 20010904//EN"
 "http://www.w3.org/TR/2001/REC-SVG-20010904/DTD/svg10.dtd">
<svg version="1.0" xmlns="http://www.w3.org/2000/svg"
 width="24.000000pt" height="24.000000pt" viewBox="0 0 24.000000 24.000000"
 preserveAspectRatio="xMidYMid meet">

<g transform="translate(0.000000,24.000000) scale(0.100000,-0.100000)"
fill="#000000" stroke="none">
<path d="M73 206 c-55 -25 -85 -94 -63 -146 12 -29 13 -29 35 -12 29 23 127
22 154 -2 17 -16 19 -15 31 15 11 26 11 38 -1 72 -24 68 -93 101 -156 73z m89
-61 c9 -19 8 -29 -6 -50 -21 -32 -51 -32 -72 0 -24 37 -6 75 36 75 23 0 33 -6
42 -25z"/>
</g>
</svg>
